<svg width="32" height="32" viewBox="0 0 32 32" fill="none" xmlns="http://www.w3.org/2000/svg">
<rect opacity="0.06" width="32" height="32" rx="10" fill="#B21FF1"/>
<path d="M10.5938 23.7344H21.3984C23.1328 23.7344 24.0469 22.8281 24.0469 21.1172V11.625C24.0469 9.91406 23.1328 9 21.3984 9H10.5938C8.86719 9 7.94531 9.91406 7.94531 11.625V21.1172C7.94531 22.8281 8.86719 23.7344 10.5938 23.7344ZM10.6484 22C10.0234 22 9.6875 21.6875 9.6875 21.0234V13.9297C9.6875 13.2734 10.0234 12.9609 10.6484 12.9609H21.3359C21.9609 12.9609 22.3047 13.2734 22.3047 13.9297V21.0234C22.3047 21.6875 21.9609 22 21.3359 22H10.6484ZM14.5078 15.5938H14.9688C15.25 15.5938 15.3438 15.5078 15.3438 15.2266V14.7656C15.3438 14.4844 15.25 14.3984 14.9688 14.3984H14.5078C14.2266 14.3984 14.1328 14.4844 14.1328 14.7656V15.2266C14.1328 15.5078 14.2266 15.5938 14.5078 15.5938ZM17.0312 15.5938H17.4922C17.7734 15.5938 17.8672 15.5078 17.8672 15.2266V14.7656C17.8672 14.4844 17.7734 14.3984 17.4922 14.3984H17.0312C16.75 14.3984 16.6562 14.4844 16.6562 14.7656V15.2266C16.6562 15.5078 16.75 15.5938 17.0312 15.5938ZM19.5547 15.5938H20.0156C20.2969 15.5938 20.3984 15.5078 20.3984 15.2266V14.7656C20.3984 14.4844 20.2969 14.3984 20.0156 14.3984H19.5547C19.2734 14.3984 19.1797 14.4844 19.1797 14.7656V15.2266C19.1797 15.5078 19.2734 15.5938 19.5547 15.5938ZM11.9844 18.0781H12.4453C12.7266 18.0781 12.8203 17.9922 12.8203 17.7109V17.25C12.8203 16.9688 12.7266 16.8828 12.4453 16.8828H11.9844C11.7031 16.8828 11.6016 16.9688 11.6016 17.25V17.7109C11.6016 17.9922 11.7031 18.0781 11.9844 18.0781ZM14.5078 18.0781H14.9688C15.25 18.0781 15.3438 17.9922 15.3438 17.7109V17.25C15.3438 16.9688 15.25 16.8828 14.9688 16.8828H14.5078C14.2266 16.8828 14.1328 16.9688 14.1328 17.25V17.7109C14.1328 17.9922 14.2266 18.0781 14.5078 18.0781ZM17.0312 18.0781H17.4922C17.7734 18.0781 17.8672 17.9922 17.8672 17.7109V17.25C17.8672 16.9688 17.7734 16.8828 17.4922 16.8828H17.0312C16.75 16.8828 16.6562 16.9688 16.6562 17.25V17.7109C16.6562 17.9922 16.75 18.0781 17.0312 18.0781ZM19.5547 18.0781H20.0156C20.2969 18.0781 20.3984 17.9922 20.3984 17.7109V17.25C20.3984 16.9688 20.2969 16.8828 20.0156 16.8828H19.5547C19.2734 16.8828 19.1797 16.9688 19.1797 17.25V17.7109C19.1797 17.9922 19.2734 18.0781 19.5547 18.0781ZM11.9844 20.5625H12.4453C12.7266 20.5625 12.8203 20.4766 12.8203 20.1953V19.7344C12.8203 19.4531 12.7266 19.3672 12.4453 19.3672H11.9844C11.7031 19.3672 11.6016 19.4531 11.6016 19.7344V20.1953C11.6016 20.4766 11.7031 20.5625 11.9844 20.5625ZM14.5078 20.5625H14.9688C15.25 20.5625 15.3438 20.4766 15.3438 20.1953V19.7344C15.3438 19.4531 15.25 19.3672 14.9688 19.3672H14.5078C14.2266 19.3672 14.1328 19.4531 14.1328 19.7344V20.1953C14.1328 20.4766 14.2266 20.5625 14.5078 20.5625ZM17.0312 20.5625H17.4922C17.7734 20.5625 17.8672 20.4766 17.8672 20.1953V19.7344C17.8672 19.4531 17.7734 19.3672 17.4922 19.3672H17.0312C16.75 19.3672 16.6562 19.4531 16.6562 19.7344V20.1953C16.6562 20.4766 16.75 20.5625 17.0312 20.5625Z" fill="#B21FF1"/>
</svg>
