<svg width="32" height="32" viewBox="0 0 32 32" fill="none" xmlns="http://www.w3.org/2000/svg">
<g clip-path="url(#clip0_2924_28585)">
<rect opacity="0.06" width="32" height="32" rx="10" fill="#00B25C"/>
<path d="M9.74219 23.4688H22.375C24.0625 23.4688 25.0469 22.4766 25.0469 20.6953V12.0469C25.0469 10.2578 24.0547 9.27344 22.2578 9.27344H9.625C7.94531 9.27344 6.95312 10.2578 6.95312 12.0469V20.6953C6.95312 22.4844 7.94531 23.4688 9.74219 23.4688ZM15.2188 16.4141L9.99219 11.2422H22.0234L16.7969 16.4141C16.4922 16.7109 16.2578 16.8359 16.0078 16.8359C15.7578 16.8359 15.5234 16.7109 15.2188 16.4141ZM8.88281 12.5078L12.7031 16.2734L8.88281 20.0703V12.5078ZM19.3125 16.2656L23.1172 12.5234V20.0547L19.3125 16.2656ZM16.0078 18.5781C16.6484 18.5781 17.2422 18.3125 17.8281 17.7266L18.1094 17.4531L22.1797 21.5H9.83594L13.8984 17.4531L14.1797 17.7266C14.7734 18.3125 15.3672 18.5781 16.0078 18.5781Z" fill="#00B25C"/>
</g>
<defs>
<clipPath id="clip0_2924_28585">
<rect width="32" height="32" fill="white"/>
</clipPath>
</defs>
</svg>
