<svg width="32" height="32" viewBox="0 0 32 32" fill="none" xmlns="http://www.w3.org/2000/svg">
<rect opacity="0.06" width="32" height="32" rx="10" fill="#B21FF1"/>
<path d="M16 24.4736C20.6318 24.4736 24.4668 20.6304 24.4668 16.0068C24.4668 11.375 20.6235 7.54004 15.9917 7.54004C11.3682 7.54004 7.5332 11.375 7.5332 16.0068C7.5332 20.6304 11.3765 24.4736 16 24.4736ZM16 18.8374C13.5098 18.8374 11.584 19.7256 10.7456 20.7217C9.625 19.4766 8.95264 17.8247 8.95264 16.0068C8.95264 12.0889 12.0737 8.95117 15.9917 8.95117C19.9097 8.95117 23.0474 12.0889 23.0557 16.0068C23.064 17.8247 22.3833 19.4766 21.2627 20.73C20.4243 19.7339 18.4985 18.8374 16 18.8374ZM16 17.4263C17.5938 17.4429 18.8472 16.0815 18.8472 14.2969C18.8472 12.6201 17.5938 11.2256 16 11.2256C14.4062 11.2256 13.1445 12.6201 13.1528 14.2969C13.1611 16.0815 14.4062 17.4097 16 17.4263Z" fill="#B21FF1"/>
</svg>
