<svg width="15" height="18" viewBox="0 0 15 18" fill="none" xmlns="http://www.w3.org/2000/svg">
<path d="M12.5412 9.512C12.5332 8.03718 13.1947 6.92403 14.5337 6.10424C13.7845 5.02323 12.6528 4.42848 11.1583 4.31194C9.74363 4.19942 8.1974 5.14379 7.63151 5.14379C7.03374 5.14379 5.66286 4.35213 4.58688 4.35213C2.36318 4.3883 0 6.1404 0 9.70489C0 10.7578 0.191286 11.8455 0.573858 12.968C1.08395 14.4428 2.92508 18.0595 4.84591 17.9993C5.85016 17.9751 6.55951 17.2799 7.86663 17.2799C9.1339 17.2799 9.79144 17.9993 10.9113 17.9993C12.848 17.9711 14.5138 14.6839 15 13.2051C12.4017 11.9714 12.5412 9.58835 12.5412 9.512ZM10.2856 2.91348C11.3735 1.61145 11.2739 0.42597 11.242 0C10.2816 0.0562602 9.16977 0.659048 8.53613 1.40249C7.83874 2.19817 7.42827 3.18272 7.51594 4.29185C8.55606 4.37222 9.50452 3.83373 10.2856 2.91348Z" fill="black"/>
</svg>
