<svg width="32" height="32" viewBox="0 0 32 32" fill="none" xmlns="http://www.w3.org/2000/svg">
<g clip-path="url(#clip0_2924_11525)">
<rect opacity="0.06" width="32" height="32" rx="10" fill="#F90000"/>
<path d="M15.0391 23.7266C15.7031 23.7266 16.2031 23.2188 16.2031 22.5547V19.8984H16.3672C19.0938 19.8984 20.7109 20.7969 21.8203 22.8672C22.1641 23.4844 22.5625 23.6562 23.0312 23.6562C23.6797 23.6562 24.125 23.0312 24.125 21.8047C24.125 16.2109 21.5859 12.8594 16.3672 12.8594H16.2031V10.1953C16.2031 9.53125 15.7031 9 15.0234 9C14.5781 9 14.2656 9.17969 13.7812 9.625L7.57031 15.3906C7.25781 15.6875 7.13281 16.0391 7.13281 16.3594C7.13281 16.6719 7.26562 17.0391 7.57812 17.3359L13.7812 23.1328C14.2188 23.5391 14.5781 23.7266 15.0391 23.7266ZM14.5078 21.4453C14.4609 21.4453 14.4219 21.4297 14.375 21.3828L9.21094 16.5078C9.14844 16.4453 9.13281 16.4062 9.13281 16.3594C9.13281 16.3125 9.15625 16.2734 9.21094 16.2188L14.375 11.2969C14.4141 11.2656 14.4531 11.2422 14.5078 11.2422C14.5781 11.2422 14.625 11.2891 14.625 11.3672V14.2031C14.625 14.375 14.7031 14.4531 14.8828 14.4531H15.8359C20.625 14.4531 22.5156 17.4688 22.6172 21.2344C22.6172 21.2812 22.5938 21.3047 22.5625 21.3047C22.5312 21.3047 22.5156 21.2812 22.4922 21.2344C21.5547 19.2891 19.3281 18.2734 15.8359 18.2734H14.8828C14.7031 18.2734 14.625 18.3516 14.625 18.5312V21.3125C14.625 21.3906 14.5781 21.4453 14.5078 21.4453Z" fill="#F90000"/>
</g>
<defs>
<clipPath id="clip0_2924_11525">
<rect width="32" height="32" fill="white"/>
</clipPath>
</defs>
</svg>
