<svg width="32" height="32" viewBox="0 0 32 32" fill="none" xmlns="http://www.w3.org/2000/svg">
<rect opacity="0.06" width="32" height="32" rx="10" fill="#00B25C"/>
<path d="M9.13281 21.8516C9.33594 21.8516 9.5625 21.7969 9.79688 21.6797V13.6953C9.79688 12.9688 9.90625 12.7734 10.5391 12.4062L17.4688 8.41406C17.4141 7.61719 16.8906 7.16406 16.2188 7.16406C15.8984 7.16406 15.5391 7.26562 15.1797 7.46875L8.96094 11.0547C8 11.6172 7.83594 11.8516 7.83594 13V20.1328C7.83594 21.1641 8.35156 21.8516 9.13281 21.8516ZM12.3828 23.7266C12.5859 23.7266 12.8125 23.6719 13.0469 23.5547V15.5703C13.0469 14.8281 13.1484 14.6484 13.7891 14.2812L20.7188 10.2812C20.6641 9.49219 20.1484 9.03906 19.4609 9.03906C19.1406 9.03906 18.7891 9.13281 18.4219 9.34375L12.2031 12.9297C11.2422 13.4844 11.0781 13.7344 11.0781 14.875V22.0078C11.0781 23.0391 11.6094 23.7266 12.3828 23.7266ZM15.7578 25.6719C16.1094 25.6719 16.5234 25.5391 16.9766 25.2812L22.9844 21.8203C23.9297 21.2734 24.1719 20.8828 24.1641 19.7578V12.8281C24.1641 11.6406 23.6562 10.9844 22.8438 10.9844C22.4922 10.9844 22.0859 11.1094 21.6406 11.3672L15.6328 14.8281C14.6562 15.3984 14.4453 15.7578 14.4453 16.8906V23.8203C14.4453 25.0078 14.9453 25.6719 15.7578 25.6719ZM16.4844 23.2344C16.4453 23.2344 16.4297 23.2031 16.4297 23.1641L16.5 17.0078C16.5 16.7891 16.5781 16.6641 16.7656 16.5547L22.0391 13.4297C22.0625 13.4141 22.0859 13.3984 22.1172 13.4062C22.1562 13.4062 22.1797 13.4375 22.1797 13.4922L22.1172 19.6484C22.1172 19.8438 22.0469 19.9922 21.8594 20.1016L16.5547 23.2188C16.5312 23.2344 16.5078 23.2422 16.4844 23.2344Z" fill="#00A396"/>
</svg>
