<svg width="32" height="32" viewBox="0 0 32 32" fill="none" xmlns="http://www.w3.org/2000/svg">
<rect opacity="0.06" width="32" height="32" rx="10" fill="#FF7502"/>
<path d="M11.8125 24.9609H20.1797C21.9531 24.9609 22.9219 23.9844 22.9219 22.2031V15.125C22.9219 13.9062 22.7422 13.2969 21.9688 12.5156L18.2188 8.72656C17.4609 7.96094 16.8281 7.76562 15.6719 7.76562H11.8125C10.0391 7.76562 9.07031 8.74219 9.07031 10.5234V22.2031C9.07031 23.9922 10.0391 24.9609 11.8125 24.9609ZM12.0547 22.9453C11.3906 22.9453 11.0859 22.6094 11.0859 21.9844V10.75C11.0859 10.125 11.3906 9.78125 12.0547 9.78125H15.125V13.6094C15.125 14.9688 15.7734 15.6094 17.125 15.6094H20.9062V21.9844C20.9062 22.6094 20.6016 22.9453 19.9375 22.9453H12.0547ZM17.2734 13.9531C16.9375 13.9531 16.7812 13.7969 16.7812 13.4609V9.94531L20.75 13.9531H17.2734Z" fill="#FF7502"/>
</svg>
