<svg width="32" height="32" viewBox="0 0 32 32" fill="none" xmlns="http://www.w3.org/2000/svg">
<g clip-path="url(#clip0_2924_11507)">
<rect opacity="0.06" width="32" height="32" rx="10" fill="#1E6BFF"/>
<path d="M7.01562 16.3594C7.01562 20.8359 10.7031 24.5234 15.1797 24.5234C17.625 24.5234 20.0312 23.3125 21.4375 21.5234C21.8438 21.0391 21.7969 20.4688 21.3984 20.1562C20.9688 19.8125 20.4297 19.9453 20.0469 20.3516C18.875 21.7812 17.1641 22.6797 15.1797 22.6875C11.6719 22.6953 8.85156 19.8672 8.85156 16.3594C8.85156 12.8516 11.6719 10.0312 15.1797 10.0312C18.1094 10.0312 20.5469 11.9844 21.2891 14.6641H20.1562C19.5234 14.6641 19.3438 15.1641 19.7266 15.6875L21.6953 18.4375C22 18.8672 22.4844 18.8672 22.7969 18.4375L24.7734 15.6953C25.1562 15.1641 24.9844 14.6641 24.3438 14.6641H23.1719C22.3828 10.9844 19.0781 8.19531 15.1797 8.19531C10.7031 8.19531 7.01562 11.8828 7.01562 16.3594ZM12.4453 19.2656C12.4453 19.875 12.7188 20.1562 13.2812 20.1562H17.1797C17.7344 20.1562 18.0078 19.875 18.0078 19.2656V16.2969C18.0078 15.6875 17.7344 15.4062 17.1797 15.4062H14.0859V14.5078C14.0859 13.6953 14.5391 13.1641 15.2578 13.1641C15.9219 13.1641 16.375 13.5781 16.375 14.2109V14.3516C16.375 14.6641 16.6094 14.8359 16.8828 14.8359C17.1484 14.8359 17.375 14.6562 17.375 14.3359V14.1953C17.375 13 16.5156 12.1797 15.2578 12.1797C13.9453 12.1797 13.0859 13.1484 13.0859 14.5781V15.4297C12.6562 15.4844 12.4453 15.7578 12.4453 16.2812V19.2656Z" fill="#1E6BFF"/>
</g>
<defs>
<clipPath id="clip0_2924_11507">
<rect width="32" height="32" fill="white"/>
</clipPath>
</defs>
</svg>
