<svg width="32" height="32" viewBox="0 0 32 32" fill="none" xmlns="http://www.w3.org/2000/svg">
<rect opacity="0.06" width="32" height="32" rx="10" fill="#F90000"/>
<path d="M11.2891 23.2812H12.9297C13.0625 23.2812 13.1484 23.3125 13.25 23.4141L14.4141 24.5703C15.4844 25.6406 16.5078 25.6328 17.5781 24.5703L18.7344 23.4141C18.8359 23.3125 18.9297 23.2812 19.0625 23.2812H20.6953C22.2109 23.2812 22.9375 22.5469 22.9375 21.0391V19.3984C22.9375 19.2734 22.9766 19.1719 23.0703 19.0781L24.2266 17.9141C25.2969 16.8516 25.2969 15.8203 24.2266 14.7578L23.0703 13.5938C22.9688 13.4922 22.9375 13.4062 22.9375 13.2734V11.6328C22.9375 10.125 22.2109 9.39062 20.6953 9.39062H19.0625C18.9297 9.39062 18.8359 9.35938 18.7344 9.25781L17.5781 8.10156C16.5 7.03125 15.4922 7.03906 14.4141 8.10938L13.25 9.25781C13.1562 9.35156 13.0625 9.39062 12.9297 9.39062H11.2891C9.78125 9.39062 9.04688 10.1094 9.04688 11.6328V13.2734C9.04688 13.4062 9.01562 13.5 8.92188 13.5938L7.76562 14.7578C6.69531 15.8203 6.69531 16.8516 7.76562 17.9141L8.92188 19.0781C9.01562 19.1719 9.04688 19.2734 9.04688 19.3984V21.0391C9.04688 22.5469 9.78125 23.2812 11.2891 23.2812ZM11.5781 21.5469C10.8984 21.5469 10.7891 21.4375 10.7812 20.7578V18.8203C10.7812 18.5938 10.7188 18.4297 10.5625 18.2656L9.1875 16.8984C8.71094 16.4141 8.71094 16.2656 9.1875 15.7812L10.5625 14.4141C10.7188 14.2578 10.7812 14.0859 10.7891 13.8594V11.9219C10.7891 11.2344 10.8906 11.1328 11.5781 11.1328H13.5156C13.7422 11.1328 13.9141 11.0625 14.0703 10.9062L15.4375 9.53125C15.9219 9.05469 16.0625 9.04688 16.5547 9.53125L17.9219 10.9062C18.0781 11.0625 18.25 11.1328 18.4766 11.1328H20.4141C21.0859 11.1328 21.2031 11.25 21.2031 11.9219V13.8594C21.2031 14.0859 21.2656 14.2578 21.4297 14.4141L22.8047 15.7812C23.2812 16.2656 23.2812 16.4141 22.8047 16.8984L21.4297 18.2656C21.2656 18.4297 21.2031 18.5938 21.2031 18.8203V20.7578C21.2031 21.4375 21.0859 21.5469 20.4141 21.5469L18.4766 21.5547C18.25 21.5547 18.0859 21.6094 17.9219 21.7734L16.5547 23.1484C16.0703 23.625 15.9219 23.625 15.4375 23.1484L14.0703 21.7734C13.9062 21.6094 13.7422 21.5547 13.5156 21.5547L11.5781 21.5469ZM15.1797 20.0547C15.5 20.0547 15.7891 19.8906 15.9688 19.6094L19.3281 14.4297C19.4531 14.25 19.5312 14.0469 19.5312 13.8594C19.5312 13.3984 19.1328 13.0781 18.6953 13.0781C18.3984 13.0781 18.1562 13.2344 17.9688 13.5469L15.1641 18.0625L13.8594 16.4609C13.6641 16.2188 13.4531 16.1172 13.1953 16.1172C12.7422 16.1172 12.375 16.4766 12.375 16.9375C12.375 17.1484 12.4453 17.3359 12.6094 17.5391L14.3516 19.625C14.5859 19.9062 14.8516 20.0547 15.1797 20.0547Z" fill="#FF0073"/>
</svg>
